<svg xmlns="http://www.w3.org/2000/svg" width="2500" height="2500" viewBox="0 0 246.66 42.9"><title>Mazda logo</title><path d="M483.85,522H470.24l-.51,0-.51-.1-.47-.2-.43-.28-.38-.35-.3-.41-.23-.46-.14-.5,0-.51,0-.51.14-.49.23-.46.3-.41.38-.35.43-.28.47-.2.51-.1.51,0h13.61V522ZM531.6,490.6H500.77v12.5h15.56l15.27-12.5Zm-20.86,42.85h30.83V520.68h-14.3l-16.53,12.77ZM559,520.73V503.28h10.79l.89,0,.9.08.88.15.87.18.59.21.54.29.49.39.43.45.36.62.29.74.25.81.19.88.14.94.15,1,0,1v1.07l0,1-.09,1-.09,1-.19.94-.23.88-.23.8-.33.69-.38.57-.37.46-.39.37-.52.28-.57.22-.62.18-.66.14-.74.07-.77,0H559Zm62-4.49V522H607.71l-.59,0-.57-.14-.53-.25-.46-.35-.39-.45-.29-.51-.18-.57-.06-.58.06-.58.18-.56.28-.51.39-.45.47-.35.53-.25.57-.14.59,0Zm-76.53,17.2h32.7l1.24-.07,1.22-.18,1.2-.29,1.17-.4,1.12-.51,1.07-.6,1-.7,1-.83.91-.92.82-1,.58-.88.52-.91.45-.94.37-1,.3-1,.25.91.32.88.38.86.44.83.49.81.55.76.6.72.65.68.69.63.74.58.78.52.82.47.84.41.87.35.89.29.92.22.92.16.94.09.94,0h32.17v-29l0-1-.1-1-.17-1-.24-1-.32-.94-.38-.91-.45-.88-.51-.85-.57-.81-.63-.76-.68-.72-.74-.67-.78-.61-.82-.55-.86-.49-.9-.42-.92-.36-1-.28-1-.22-1-.15-1-.08H592.72v11.58h23.9l.62,0,.58.23.47.4.32.53.12.61-.09.62-.28.56-.45.43-.56.27-.62.07H603.1l-1,0-1,.1-1,.18-1,.25-.94.32-.91.39-.88.45-.84.51-.8.58-.76.64-.7.69-.65.74-.6.78-.54.83-.13-3.41-.07-1-.07-1-.08-1.29-.14-1.27-.2-1.27-.26-1.25-.28-1-.33-1-.39-1-.43-1-.52-.88-.58-.84-.65-.79-.7-.71-.75-.65-.78-.61-.82-.55-.86-.5-.89-.44-.93-.37-1-.34-1-.28-1-.22-1-.15H537.33L498.24,521.9V504.37l-.05-1.12-.15-1.11-.23-1.1-.32-1.08-.41-1-.49-1-.57-1-.64-.92-.72-.86-.78-.81-.85-.74-.91-.66-1-.59-1-.51-1-.43-1.07-.34-1.09-.26-1.11-.17-1.12-.08-1.12,0h-28.2v11.78h26.47l.39.09.36.16.31.24.27.29.2.34.12.37,0,.39,0,.4-.12.37-.2.34-.27.29-.31.24-.36.16-.39.09h-.39l-15.8,0-1.1,0-1.09.14-1.08.21-1.06.31-1,.39-1,.47-1,.55-.9.63-.86.69-.79.76-.73.82-.67.88-.59.93-.51,1v-9l0-1.6-.21-1.58-.39-1.54-.56-1.49-.74-1.42-.89-1.32-1-1.21-1.18-1.08-1.29-.94-1.38-.78-1.48-.63-1.53-.45-1.57-.27-1.6-.09H388.67v42.82h14.52v-29.9h10.64v29.9H428v-29.9h6.85l.67.06.64.18.61.29.54.4.46.49.37.56.26.62.15.65,0,.68v26h14.81v-7.59l.51,1,.58.93.65.88.73.82.8.76.86.69.91.62,1,.54,1,.45,1,.38,1.06.29,1.08.2,1.09.11,1.1,0,38.85,0,39.91-31.63v31.63Z" transform="translate(-388.67 -490.55)" style="fill:#1d1d1b;fill-rule:evenodd"/></svg>