<svg width="443.1" height="85.5" viewBox="0 0 443.1 85.5" xmlns="http://www.w3.org/2000/svg"><g id="svgGroup" stroke-linecap="round" fill-rule="evenodd" font-size="9pt" stroke="#ffffff" stroke-width="0.25mm" fill="#ffffff" style="stroke:#ffffff;stroke-width:0.25mm;fill:#ffffff"><path d="M 48.7 36 L 47.1 35.4 Q 45.897 35.863 45.122 35.898 A 2.744 2.744 0 0 1 45 35.9 Q 42.9 35.9 42.9 34.2 Q 42.9 32.191 45.267 31.402 A 7.67 7.67 0 0 1 46 31.2 Q 47.738 30.743 50.395 32.543 A 16.626 16.626 0 0 1 50.9 32.9 Q 54.8 28.5 58.45 24.5 Q 62.1 20.5 65.1 17.95 A 20.975 20.975 0 0 1 66.441 16.895 Q 68.522 15.4 69.9 15.4 Q 72.3 15.4 72.3 17.6 Q 72.3 18.5 71.85 19.45 A 3.133 3.133 0 0 1 71.639 19.832 Q 71.364 20.249 71.04 20.36 A 0.736 0.736 0 0 1 70.8 20.4 Q 70.268 20.489 70.208 19.949 A 1.341 1.341 0 0 1 70.2 19.8 Q 70.2 19.352 70.682 18.744 A 4.76 4.76 0 0 1 70.8 18.6 L 70.8 18.2 A 1.426 1.426 0 0 0 70.757 17.839 A 0.954 0.954 0 0 0 70.4 17.3 A 0.913 0.913 0 0 0 69.889 17.158 Q 66.678 17.158 54.4 34.2 Q 55.5 34.3 56.75 34.35 A 63.037 63.037 0 0 0 58.54 34.395 A 74.527 74.527 0 0 0 59.4 34.4 Q 82.6 34.4 88.4 22.4 Q 89.444 20.138 89.58 18.178 A 8.373 8.373 0 0 0 89.6 17.6 A 8.931 8.931 0 0 0 87.342 11.675 A 13.547 13.547 0 0 0 85.5 9.9 A 17.374 17.374 0 0 0 81.06 7.325 Q 78.681 6.359 75.75 5.85 Q 69.7 4.8 63.7 4.8 A 55.384 55.384 0 0 0 49.089 6.861 Q 42.432 8.678 35.4 12.1 A 58.414 58.414 0 0 0 27.882 16.433 Q 19.306 22.353 17.616 29.446 A 15.275 15.275 0 0 0 17.2 33 A 4.184 4.184 0 0 0 17.55 34.775 Q 18.372 36.548 21.129 36.842 A 11.076 11.076 0 0 0 22.3 36.9 A 14.084 14.084 0 0 0 26.317 36.273 Q 28.05 35.758 29.916 34.818 A 32.599 32.599 0 0 0 32.9 33.1 Q 36.247 30.869 38.216 28.595 A 13.58 13.58 0 0 0 39.9 26.2 A 6.391 6.391 0 0 1 40.181 25.726 Q 40.673 24.975 41.113 24.907 A 0.57 0.57 0 0 1 41.2 24.9 A 0.88 0.88 0 0 1 41.39 24.919 Q 41.855 25.022 41.6 25.7 Q 39.859 30.833 34.17 34.621 A 29.739 29.739 0 0 1 33.1 35.3 A 27.013 27.013 0 0 1 25.774 38.454 A 23.458 23.458 0 0 1 19.9 39.2 Q 11.8 39.2 12.4 34 A 26.048 26.048 0 0 1 19.093 19.483 Q 22.103 16.079 26.432 13.069 A 54.704 54.704 0 0 1 28.5 11.7 A 58.243 58.243 0 0 1 48.969 3.88 A 79.004 79.004 0 0 1 63.5 2.6 Q 71.3 2.6 78.65 4 A 32.63 32.63 0 0 1 84.168 5.534 Q 87.869 6.944 90.6 9.2 A 15.069 15.069 0 0 1 93.43 12.256 A 11.011 11.011 0 0 1 95.4 18.6 Q 95.4 20.9 94.3 23.6 Q 92.6 27.5 89.1 30.25 Q 85.6 33 81 34.7 Q 76.4 36.4 71.3 37.2 A 65.181 65.181 0 0 1 63.211 37.972 A 58.642 58.642 0 0 1 61.4 38 A 60.762 60.762 0 0 1 57.716 37.892 A 52.475 52.475 0 0 1 56.45 37.8 Q 54.1 37.6 52.1 37.2 A 179.283 179.283 0 0 1 52.444 38.302 Q 53.064 40.311 54.2 44.1 Q 55.542 48.573 57.524 55.446 A 2173.185 2173.185 0 0 1 58 57.1 Q 58.678 59.23 59.872 61.736 A 51.12 51.12 0 0 0 59.95 61.9 Q 61.2 64.5 62.8 66.8 A 20.56 20.56 0 0 0 64.571 69.018 A 16.087 16.087 0 0 0 66.25 70.6 A 7.725 7.725 0 0 0 67.645 71.514 Q 68.685 72.036 69.741 72.093 A 4.806 4.806 0 0 0 70 72.1 Q 73.488 72.1 76.01 66.239 A 32.103 32.103 0 0 0 77 63.6 A 11.234 11.234 0 0 1 77.183 62.946 Q 77.481 62.005 77.811 61.722 A 0.444 0.444 0 0 1 78.1 61.6 A 0.363 0.363 0 0 1 78.363 61.738 Q 78.708 62.112 79 63.5 A 1.634 1.634 0 0 1 79.057 63.73 Q 79.1 63.972 79.1 64.3 Q 79.1 66.642 76.828 69.958 A 26.571 26.571 0 0 1 76.3 70.7 A 18.042 18.042 0 0 1 74.271 73.234 Q 71.378 76.2 68 76.2 A 8.754 8.754 0 0 1 61.523 73.399 A 11.86 11.86 0 0 1 61.15 73 Q 58.478 70 56.466 65.418 A 41.372 41.372 0 0 1 56.2 64.8 Q 54.1 59.8 52.5 54.5 A 207.894 207.894 0 0 1 51.418 50.851 Q 49.094 42.717 49.34 40.443 A 2.384 2.384 0 0 1 49.4 40.1 Q 45.344 45.532 42.044 49.71 A 255.814 255.814 0 0 1 39.2 53.25 Q 34.9 58.5 32.2 61.1 A 51.298 51.298 0 0 1 24.61 67.234 Q 19.817 70.356 14.976 71.627 A 26.185 26.185 0 0 1 8.3 72.5 A 14.282 14.282 0 0 1 5.776 72.289 Q 4.308 72.026 3.115 71.432 A 8.235 8.235 0 0 1 2.35 71 A 4.862 4.862 0 0 1 0.207 67.902 A 8.149 8.149 0 0 1 0 66 A 11.204 11.204 0 0 1 0.282 63.569 Q 0.523 62.483 0.971 61.325 A 18.597 18.597 0 0 1 1 61.25 Q 2 58.7 3.5 56.4 Q 4.842 54.343 6.184 52.926 A 16.595 16.595 0 0 1 6.5 52.6 Q 8.932 50.169 10.766 49.529 A 3.754 3.754 0 0 1 12 49.3 A 1.201 1.201 0 0 1 12.134 49.307 Q 12.4 49.337 12.4 49.5 A 0.601 0.601 0 0 1 12.318 49.773 Q 12.114 50.159 11.403 50.781 A 14.836 14.836 0 0 1 10.9 51.2 Q 7.4 54 5.1 57.65 A 18.9 18.9 0 0 0 3.815 60.029 Q 2.8 62.308 2.8 64.3 A 5.528 5.528 0 0 0 3.325 66.795 Q 4.81 69.771 10.501 69.607 A 21.908 21.908 0 0 0 10.7 69.6 Q 23.6 69.1 46.5 38.4 Q 47.627 36.927 48.453 36.205 A 5.609 5.609 0 0 1 48.7 36 Z M 268.36 70.865 A 33.579 33.579 0 0 0 275.1 71.5 A 39.324 39.324 0 0 0 278.921 71.31 A 47.315 47.315 0 0 0 285.6 70.15 Q 291.1 68.8 296.45 66.4 Q 301.8 64 306.5 60.9 A 52.009 52.009 0 0 0 309.578 58.71 A 42.688 42.688 0 0 0 314.6 54.2 A 5.462 5.462 0 0 0 314.736 54.06 Q 315.091 53.678 315.315 53.286 A 2.762 2.762 0 0 0 315.7 51.9 A 2.078 2.078 0 0 0 315.683 51.62 Q 315.598 51 315.1 51 A 0.92 0.92 0 0 0 314.862 51.035 Q 314.253 51.198 313.254 52.143 A 16.456 16.456 0 0 0 312.6 52.8 Q 306.3 59.8 297.4 63.95 Q 288.5 68.1 279 68.1 A 32.899 32.899 0 0 1 274.359 67.784 A 25.178 25.178 0 0 1 267.65 65.9 A 20.961 20.961 0 0 1 267.04 65.617 A 17.447 17.447 0 0 1 259.9 59.45 A 16.39 16.39 0 0 1 257.627 54.042 A 22.094 22.094 0 0 1 257.1 49.1 A 28.195 28.195 0 0 1 258.217 41.393 Q 259.443 37.066 262.016 32.532 A 63.014 63.014 0 0 1 267.5 24.5 Q 272.7 17.9 279.3 12.8 Q 285.9 7.7 293.45 4.8 Q 301 1.9 308.7 1.9 Q 315.5 1.9 319.9 4.9 A 9.603 9.603 0 0 1 323.871 10.68 A 15.086 15.086 0 0 1 324.3 14.4 Q 324.3 18.4 322.25 22.05 A 22.746 22.746 0 0 1 321.506 23.283 A 24.498 24.498 0 0 1 316.8 28.6 Q 313.4 31.5 309.35 33.2 A 23.841 23.841 0 0 1 307.802 33.789 A 20.085 20.085 0 0 1 301.3 34.9 A 15.293 15.293 0 0 1 298.384 34.634 A 11.023 11.023 0 0 1 293.8 32.65 A 9.521 9.521 0 0 1 292.897 31.884 A 6.434 6.434 0 0 1 290.8 27.1 Q 290.8 23.722 293.82 20.398 A 22.621 22.621 0 0 1 296.4 18 A 5.937 5.937 0 0 0 296.53 17.95 Q 298 17.359 298 16.4 A 0.56 0.56 0 0 0 297.996 16.331 Q 297.964 16.074 297.683 16.017 A 0.917 0.917 0 0 0 297.5 16 Q 296.974 16 296.165 16.509 A 8.412 8.412 0 0 0 295.6 16.9 A 27.103 27.103 0 0 0 292.497 19.599 Q 288.7 23.494 288.7 27.5 A 7.466 7.466 0 0 0 290.594 32.54 A 11.011 11.011 0 0 0 292.8 34.45 A 15.696 15.696 0 0 0 298.217 36.72 A 21.702 21.702 0 0 0 302.9 37.2 Q 307.5 37.2 312 35.5 Q 316.5 33.8 320.25 30.8 Q 324 27.8 326.25 23.75 Q 328.5 19.7 328.5 15 Q 328.5 9.7 325.8 6.4 A 14.293 14.293 0 0 0 322.611 3.528 A 17.536 17.536 0 0 0 318.5 1.55 Q 313.9 0 308.2 0 A 46.238 46.238 0 0 0 303.894 0.203 A 52.617 52.617 0 0 0 293.45 2.3 Q 285.9 4.6 279.05 8.7 Q 272.2 12.8 266.9 18.4 Q 260.4 25.3 256.15 33.5 Q 251.9 41.7 251.9 50.3 A 27.046 27.046 0 0 0 252.023 52.91 A 19.798 19.798 0 0 0 257.95 65.6 Q 262.015 69.564 268.36 70.865 Z M 196.1 47.4 L 202.5 37 A 79.342 79.342 0 0 0 194.882 43.416 A 103.379 103.379 0 0 0 189 49.5 A 131.281 131.281 0 0 0 187.339 51.384 Q 186.497 52.357 185.574 53.455 A 229.439 229.439 0 0 0 184.95 54.2 A 176.764 176.764 0 0 0 182.742 56.907 Q 181.435 58.541 180 60.4 Q 176.4 65.1 175.7 65.1 Q 174.3 65.1 173.4 63.85 A 6.525 6.525 0 0 1 172.935 63.112 Q 172.725 62.716 172.616 62.349 A 2.637 2.637 0 0 1 172.5 61.6 Q 172.5 60.86 172.929 58.962 A 49.984 49.984 0 0 1 173 58.65 A 26.311 26.311 0 0 1 173.476 56.874 Q 173.755 55.968 174.079 55.186 A 15.603 15.603 0 0 1 174.2 54.9 Q 174.9 53.2 175.65 51.55 Q 176.4 49.9 177.1 48.3 L 171.1 54.6 L 169.9 55.8 A 7.429 7.429 0 0 1 169.482 56.19 Q 168.791 56.781 168.33 56.8 A 0.738 0.738 0 0 1 168.3 56.8 Q 167.8 56.8 167.8 56.1 A 0.749 0.749 0 0 1 167.814 55.964 Q 167.839 55.832 167.907 55.655 A 3.256 3.256 0 0 1 167.95 55.55 A 1.536 1.536 0 0 1 168.076 55.32 Q 168.226 55.091 168.492 54.811 A 6.493 6.493 0 0 1 168.6 54.7 Q 170.1 53.2 171.7 51.5 Q 173.3 49.8 175 47.6 Q 175.898 46.503 177.692 44.26 A 1292.286 1292.286 0 0 0 177.7 44.25 Q 179.5 42 181.65 39.4 Q 183.8 36.8 185.7 34.6 Q 186.112 34.024 186.591 33.753 A 1.936 1.936 0 0 1 186.8 33.65 A 8.589 8.589 0 0 1 187.044 33.553 Q 187.444 33.4 187.6 33.4 A 5.092 5.092 0 0 1 188.586 33.487 Q 190.3 33.827 190.3 35.5 A 2.554 2.554 0 0 1 190.124 36.419 A 3.136 3.136 0 0 1 190 36.7 Q 181 49.1 179.2 55.6 Q 188.761 46.039 195.231 40.385 A 134.781 134.781 0 0 1 197.85 38.15 A 68.093 68.093 0 0 1 200.693 35.907 Q 205.545 32.3 207.9 32.3 A 8.226 8.226 0 0 1 208.806 32.347 Q 209.743 32.451 210.33 32.789 A 2.412 2.412 0 0 1 210.35 32.8 A 1.589 1.589 0 0 1 211.048 33.677 Q 211.2 34.108 211.2 34.7 Q 211.2 35.026 211.158 35.266 A 1.641 1.641 0 0 1 211.1 35.5 Q 210.845 36.096 208.058 39.729 A 326.237 326.237 0 0 1 207 41.1 A 209.626 209.626 0 0 0 204.901 43.695 Q 203.918 44.932 203.064 46.051 A 125.271 125.271 0 0 0 202.95 46.2 Q 201.2 48.5 200.1 50.2 Q 198.459 52.754 197.565 55.017 A 19.434 19.434 0 0 0 197.4 55.45 A 19.015 19.015 0 0 0 196.897 57.012 Q 196.699 57.742 196.6 58.389 A 8.02 8.02 0 0 0 196.5 59.6 Q 196.5 60.3 196.7 61.3 Q 196.876 62.178 197.669 62.285 A 1.733 1.733 0 0 0 197.9 62.3 A 4.211 4.211 0 0 0 199.259 62.034 Q 201.25 61.343 204.411 58.854 A 50.87 50.87 0 0 0 205.1 58.3 Q 207.4 56.3 209.4 54.25 A 139.743 139.743 0 0 0 212.747 50.701 A 127.174 127.174 0 0 0 213.2 50.2 A 6.106 6.106 0 0 0 213.427 49.958 Q 213.804 49.537 214.439 48.729 A 60.175 60.175 0 0 0 214.5 48.65 A 21.143 21.143 0 0 1 214.789 48.289 Q 215.321 47.639 215.527 47.525 A 0.161 0.161 0 0 1 215.6 47.5 Q 216 47.5 216 48.3 Q 216 48.671 215.613 49.515 A 12.007 12.007 0 0 1 215.55 49.65 Q 215.232 50.323 214.888 50.77 A 3.378 3.378 0 0 1 214.6 51.1 Q 213.758 52.096 212.3 53.677 A 199.327 199.327 0 0 1 211.35 54.7 A 75.413 75.413 0 0 1 208.468 57.614 A 91.196 91.196 0 0 1 206.55 59.4 Q 203.9 61.8 201.4 63.5 A 13.765 13.765 0 0 1 199.969 64.36 Q 198.336 65.2 197 65.2 Q 194.3 65.2 193.2 63.65 Q 192.1 62.1 192.1 59.8 A 19.447 19.447 0 0 1 193.069 53.897 Q 193.819 51.538 195.149 49.063 A 37.027 37.027 0 0 1 196.1 47.4 Z M 231.2 60.4 L 236.2 50.5 L 228.7 58.1 A 67.393 67.393 0 0 1 226.606 60.112 Q 224.474 62.066 222.764 63.224 A 19.73 19.73 0 0 1 222.65 63.3 A 19.036 19.036 0 0 1 221.456 64.039 Q 220.283 64.701 219.419 64.907 A 3.116 3.116 0 0 1 218.7 65 A 7.144 7.144 0 0 1 215.794 64.359 A 10.26 10.26 0 0 1 213.9 63.25 A 8.422 8.422 0 0 1 212.551 62.043 Q 211.402 60.746 211.2 59.2 A 10.374 10.374 0 0 1 211.115 57.863 Q 211.115 51.66 218.242 43.69 A 63.849 63.849 0 0 1 220.9 40.9 Q 231.6 30.4 240 30.4 Q 242.3 30.4 243.6 31.5 A 2.882 2.882 0 0 1 244.196 32.222 Q 244.47 32.682 244.65 33.3 A 12.568 12.568 0 0 0 244.766 33.677 Q 244.988 34.356 245.139 34.475 A 0.101 0.101 0 0 0 245.2 34.5 Q 245.6 34.5 245.9 34.35 A 1.397 1.397 0 0 1 246.309 34.222 A 1.859 1.859 0 0 1 246.6 34.2 A 3.075 3.075 0 0 1 247.72 34.398 A 2.796 2.796 0 0 1 248.75 35.1 A 2.947 2.947 0 0 1 249.082 35.516 Q 249.379 35.973 249.379 36.431 A 1.477 1.477 0 0 1 249.3 36.9 A 2.018 2.018 0 0 1 249.168 37.364 Q 248.764 38.414 247.159 41.065 A 118.718 118.718 0 0 1 246.4 42.3 A 140.247 140.247 0 0 0 244.98 44.726 Q 244.359 45.81 243.689 47.016 A 263.435 263.435 0 0 0 242.3 49.55 Q 240 53.8 237.45 58.35 Q 234.9 62.9 232.5 66.85 A 108.849 108.849 0 0 1 230.788 69.582 Q 229.395 71.728 228.2 73.3 A 54.825 54.825 0 0 1 223.797 78.494 Q 218.683 83.758 213.86 85.067 A 12.024 12.024 0 0 1 210.7 85.5 A 6.308 6.308 0 0 1 206.002 83.447 A 8.774 8.774 0 0 1 205.6 83 A 9.903 9.903 0 0 1 204.076 80.579 A 8.12 8.12 0 0 1 203.4 77.6 Q 203.596 76.819 203.918 76.546 A 0.578 0.578 0 0 1 204.3 76.4 A 0.455 0.455 0 0 1 204.68 76.618 Q 204.913 76.947 204.987 77.772 A 7.381 7.381 0 0 1 205 77.95 A 3.841 3.841 0 0 0 205.474 79.532 Q 205.76 80.064 206.217 80.59 A 8.008 8.008 0 0 0 206.6 81 Q 208.1 82.5 209.5 82.5 A 10.588 10.588 0 0 0 214.217 81.31 Q 217.488 79.691 220.936 75.872 A 41.673 41.673 0 0 0 221.7 75 Q 224 72.3 226.45 68.65 A 67.616 67.616 0 0 0 229.159 64.243 A 85.558 85.558 0 0 0 231.2 60.4 Z M 377.2 36.3 L 369.8 45.9 A 142.278 142.278 0 0 1 367.908 48.32 Q 364.43 52.66 363.084 53.433 A 1.037 1.037 0 0 1 362.6 53.6 A 0.917 0.917 0 0 1 362.418 53.584 Q 362.136 53.526 362.104 53.269 A 0.56 0.56 0 0 1 362.1 53.2 A 1.351 1.351 0 0 1 362.149 52.858 Q 362.257 52.45 362.6 51.9 A 3.656 3.656 0 0 1 362.817 51.531 Q 363.073 51.142 363.509 50.632 A 17.689 17.689 0 0 1 363.8 50.3 A 158.776 158.776 0 0 0 369.163 43.757 A 140.52 140.52 0 0 0 370.8 41.6 A 66.2 66.2 0 0 0 374.052 36.826 A 52.715 52.715 0 0 0 376.1 33.2 A 36.758 36.758 0 0 1 377.005 30.244 Q 379.057 24.5 381.9 24.5 A 3.651 3.651 0 0 1 382.782 24.597 Q 384.2 24.951 384.2 26.6 A 4.009 4.009 0 0 1 383.968 27.869 Q 383.439 29.445 381.7 31.6 Q 379.53 34.404 379.322 34.754 A 0.146 0.146 0 0 0 379.3 34.8 Q 379.3 36.9 382.4 36.9 A 5.967 5.967 0 0 0 384.052 36.651 Q 384.746 36.451 385.49 36.091 A 12.588 12.588 0 0 0 386.4 35.6 L 389 34 A 0.746 0.746 0 0 1 389.145 33.948 Q 389.325 33.9 389.6 33.9 A 2.649 2.649 0 0 1 391.412 34.612 A 3.705 3.705 0 0 1 391.7 34.9 Q 392.6 35.9 392.3 36.7 L 385.4 45.4 Q 380.385 51.827 379.3 56.288 A 9.81 9.81 0 0 0 379 58.6 A 6.654 6.654 0 0 0 379.211 60.354 Q 379.76 62.36 381.742 62.901 A 6.309 6.309 0 0 0 383.4 63.1 Q 386.119 63.1 389.207 61.622 A 20.876 20.876 0 0 0 389.85 61.3 A 38.893 38.893 0 0 0 395.53 57.658 A 43.86 43.86 0 0 0 396.55 56.85 Q 399.585 54.376 401.704 52.033 A 32.972 32.972 0 0 0 402 51.7 L 404.4 48.9 L 404.9 48.4 A 1.997 1.997 0 0 1 405.035 48.276 Q 405.174 48.161 405.288 48.121 A 0.341 0.341 0 0 1 405.4 48.1 A 1.008 1.008 0 0 1 405.677 48.135 Q 405.988 48.224 406.07 48.541 A 1.031 1.031 0 0 1 406.1 48.8 A 0.672 0.672 0 0 1 406.088 48.917 Q 406.055 49.103 405.928 49.429 A 7.262 7.262 0 0 1 405.9 49.5 A 3.007 3.007 0 0 1 405.698 49.906 Q 405.505 50.235 405.2 50.6 L 402 54.2 Q 399.709 56.79 396.376 59.43 A 59.807 59.807 0 0 1 396.35 59.45 Q 393 62.1 389.45 63.8 A 20.484 20.484 0 0 1 386.879 64.836 Q 384.813 65.5 383 65.5 Q 380.598 65.5 379.038 64.798 A 4.667 4.667 0 0 1 377.1 63.25 A 7.997 7.997 0 0 1 375.932 60.73 Q 375.5 59.174 375.5 57.2 Q 375.5 53 378.1 47.2 A 40.873 40.873 0 0 1 379.257 44.755 A 32.475 32.475 0 0 1 380.2 43.05 A 39.429 39.429 0 0 1 382.128 40.106 A 35.362 35.362 0 0 1 382.5 39.6 A 3.947 3.947 0 0 1 382.214 39.661 Q 381.988 39.7 381.8 39.7 L 381.2 39.7 Q 378.8 39.7 377.2 36.3 Z M 101 54.3 L 94.8 60.3 A 35.109 35.109 0 0 1 93.104 61.894 Q 91.297 63.475 89.75 64.3 A 15.77 15.77 0 0 1 88.552 64.88 Q 87.107 65.5 86.1 65.5 A 7.329 7.329 0 0 1 83.175 64.869 A 10.353 10.353 0 0 1 81.3 63.8 A 8.147 8.147 0 0 1 79.951 62.62 Q 79.107 61.684 78.774 60.602 A 4.858 4.858 0 0 1 78.6 59.8 A 10.374 10.374 0 0 1 78.515 58.463 Q 78.515 52.26 85.642 44.29 A 63.849 63.849 0 0 1 88.3 41.5 Q 97.343 32.458 104.857 31.129 A 14.589 14.589 0 0 1 107.4 30.9 Q 109.7 30.9 111 32 Q 111.7 32.7 112.05 33.9 A 12.568 12.568 0 0 0 112.166 34.277 Q 112.388 34.956 112.539 35.075 A 0.101 0.101 0 0 0 112.6 35.1 Q 113 35.1 113.3 34.95 A 1.397 1.397 0 0 1 113.709 34.822 A 1.859 1.859 0 0 1 114 34.8 A 2.863 2.863 0 0 1 116.042 35.643 A 3.757 3.757 0 0 1 116.1 35.7 A 6.084 6.084 0 0 1 116.522 36.164 Q 116.928 36.665 117.055 37.095 A 1.451 1.451 0 0 1 117.1 37.3 Q 117.2 37.5 110.7 47.2 Q 104.2 56.7 104.8 60.1 A 5.037 5.037 0 0 0 105.077 60.996 Q 105.277 61.468 105.559 61.781 A 1.853 1.853 0 0 0 107 62.4 A 6.077 6.077 0 0 0 109.798 61.517 Q 115.143 58.604 125.297 46.073 A 231.99 231.99 0 0 0 126 45.2 Q 126.272 44.838 126.543 44.804 A 0.453 0.453 0 0 1 126.6 44.8 Q 127.1 44.8 127.1 45.5 Q 127.1 46.3 126.2 47.5 Q 113.5 64.6 106.7 64.6 A 4.802 4.802 0 0 1 105.003 64.301 A 4.406 4.406 0 0 1 105 64.3 A 7.425 7.425 0 0 1 102.587 62.84 Q 101.066 61.425 100.709 59.164 A 9.402 9.402 0 0 1 100.6 57.7 Q 100.6 56 101 54.3 Z M 343 54.3 L 336.8 60.3 A 35.109 35.109 0 0 1 335.104 61.894 Q 333.297 63.475 331.75 64.3 A 15.77 15.77 0 0 1 330.552 64.88 Q 329.107 65.5 328.1 65.5 A 7.329 7.329 0 0 1 325.175 64.869 A 10.353 10.353 0 0 1 323.3 63.8 A 8.147 8.147 0 0 1 321.951 62.62 Q 321.107 61.684 320.774 60.602 A 4.858 4.858 0 0 1 320.6 59.8 A 10.374 10.374 0 0 1 320.515 58.463 Q 320.515 52.26 327.642 44.29 A 63.849 63.849 0 0 1 330.3 41.5 Q 339.343 32.458 346.857 31.129 A 14.589 14.589 0 0 1 349.4 30.9 Q 351.7 30.9 353 32 Q 353.7 32.7 354.05 33.9 A 12.568 12.568 0 0 0 354.166 34.277 Q 354.388 34.956 354.539 35.075 A 0.101 0.101 0 0 0 354.6 35.1 Q 355 35.1 355.3 34.95 A 1.397 1.397 0 0 1 355.709 34.822 A 1.859 1.859 0 0 1 356 34.8 A 2.863 2.863 0 0 1 358.042 35.643 A 3.757 3.757 0 0 1 358.1 35.7 A 6.084 6.084 0 0 1 358.522 36.164 Q 358.928 36.665 359.055 37.095 A 1.451 1.451 0 0 1 359.1 37.3 Q 359.2 37.5 352.7 47.2 Q 346.2 56.7 346.8 60.1 A 5.037 5.037 0 0 0 347.077 60.996 Q 347.277 61.468 347.559 61.781 A 1.853 1.853 0 0 0 349 62.4 A 6.077 6.077 0 0 0 351.798 61.517 Q 357.143 58.604 367.297 46.073 A 231.99 231.99 0 0 0 368 45.2 Q 368.272 44.838 368.543 44.804 A 0.453 0.453 0 0 1 368.6 44.8 Q 369.1 44.8 369.1 45.5 Q 369.1 46.3 368.2 47.5 Q 355.5 64.6 348.7 64.6 A 4.802 4.802 0 0 1 347.003 64.301 A 4.406 4.406 0 0 1 347 64.3 A 7.425 7.425 0 0 1 344.587 62.84 Q 343.066 61.425 342.709 59.164 A 9.402 9.402 0 0 1 342.6 57.7 Q 342.6 56 343 54.3 Z M 129.9 47.6 L 126 53.3 Q 125.4 54.2 124.75 56.4 Q 124.1 58.6 124.1 59.7 A 4.851 4.851 0 0 0 124.378 61.369 A 4.269 4.269 0 0 0 125.45 63 A 4.594 4.594 0 0 0 128.201 64.262 A 6.211 6.211 0 0 0 128.9 64.3 Q 133.9 64.3 142.1 57.8 A 71.607 71.607 0 0 0 147.378 53.231 Q 150.018 50.696 152.051 48.138 A 42.409 42.409 0 0 0 152.7 47.3 Q 153.2 46.7 153.9 46.7 A 1.83 1.83 0 0 1 154.138 46.714 Q 154.394 46.748 154.508 46.862 A 0.322 0.322 0 0 1 154.6 47.1 Q 154.6 47.378 154.171 48 A 7.834 7.834 0 0 1 154.1 48.1 Q 148.6 55.4 141.2 60.7 A 50.296 50.296 0 0 1 137.201 63.28 Q 133.088 65.644 129.899 66.158 A 10.687 10.687 0 0 1 128.2 66.3 Q 125 66.3 122.4 64.25 A 6.51 6.51 0 0 1 119.831 59.528 A 8.351 8.351 0 0 1 119.8 58.8 A 14.437 14.437 0 0 1 120.924 53.439 Q 122.927 48.43 128.5 42.6 A 51.315 51.315 0 0 1 132.832 38.575 Q 137.727 34.566 141.981 33.663 A 11.632 11.632 0 0 1 144.4 33.4 Q 146.8 33.4 148.2 34.65 A 4.27 4.27 0 0 1 149.199 35.931 A 3.915 3.915 0 0 1 149.6 37.7 Q 149.6 40.2 148.4 42.3 A 5.913 5.913 0 0 1 147.422 43.657 A 4.073 4.073 0 0 1 144.4 44.9 A 6.32 6.32 0 0 1 143.517 44.844 Q 142.501 44.7 142.086 44.185 A 1.365 1.365 0 0 1 141.8 43.3 A 2.815 2.815 0 0 1 141.898 42.616 Q 142.071 41.933 142.554 40.987 A 18.466 18.466 0 0 1 143.1 40 Q 144.5 37.7 144.5 37.6 A 0.183 0.183 0 0 0 144.471 37.495 Q 144.423 37.424 144.294 37.406 A 0.693 0.693 0 0 0 144.2 37.4 Q 142.045 37.631 138.586 39.936 A 43.468 43.468 0 0 0 136.4 41.5 A 74.776 74.776 0 0 0 134.398 43.1 Q 133.463 43.875 132.657 44.603 A 45.313 45.313 0 0 0 132.55 44.7 A 23.235 23.235 0 0 0 131.231 45.994 Q 130.463 46.813 129.9 47.6 Z M 411.6 41.6 L 424.2 29.8 Q 426.8 27.3 428.35 26 A 14.151 14.151 0 0 1 428.986 25.495 Q 429.924 24.796 430.461 24.712 A 0.901 0.901 0 0 1 430.6 24.7 A 6.271 6.271 0 0 1 431.758 24.797 Q 433.684 25.161 433.794 26.887 A 3.365 3.365 0 0 1 433.8 27.1 A 2.787 2.787 0 0 1 433.632 28.014 Q 433.363 28.79 432.661 29.698 A 10.655 10.655 0 0 1 432.5 29.9 Q 431.5 31.1 431.05 31.75 A 38.757 38.757 0 0 1 430.894 31.975 Q 430.624 32.359 430.526 32.472 A 0.544 0.544 0 0 1 430.5 32.5 Q 429.134 34.853 427.941 40.029 A 88.768 88.768 0 0 0 427.2 43.6 Q 426.155 49.206 425.381 52.917 A 225.715 225.715 0 0 1 425.3 53.3 Q 424.53 56.958 424.038 58.67 A 21.996 21.996 0 0 1 424 58.8 A 15.621 15.621 0 0 0 429.986 57.417 A 19.918 19.918 0 0 0 432.3 56.2 Q 436.4 53.7 441.1 48 L 441.7 47.4 Q 441.968 47.133 442.235 47.044 A 0.838 0.838 0 0 1 442.5 47 A 1.052 1.052 0 0 1 442.723 47.022 Q 443.045 47.092 443.092 47.39 A 0.702 0.702 0 0 1 443.1 47.5 A 1.789 1.789 0 0 1 442.96 48.184 A 2.346 2.346 0 0 1 442.8 48.5 Q 442.5 49 442.2 49.4 A 70.341 70.341 0 0 1 439.748 52.184 Q 438.003 54.055 436.4 55.45 A 23.954 23.954 0 0 1 432.273 58.363 A 21.325 21.325 0 0 1 430.7 59.15 Q 427.924 60.399 424.207 61.263 A 50.829 50.829 0 0 1 423.6 61.4 L 420.4 63.5 A 7.979 7.979 0 0 1 418.58 64.43 A 10.197 10.197 0 0 1 417.3 64.8 A 17.075 17.075 0 0 1 414.243 65.186 A 19.455 19.455 0 0 1 413.5 65.2 A 11.28 11.28 0 0 1 410.802 64.898 A 7.192 7.192 0 0 1 406.55 62.1 A 17.416 17.416 0 0 1 404.982 59.438 Q 404.303 58.032 403.73 56.329 A 38.955 38.955 0 0 1 402.9 53.5 Q 401.442 54.958 400.706 55.235 A 0.884 0.884 0 0 1 400.4 55.3 Q 399.923 55.3 399.901 54.571 A 2.391 2.391 0 0 1 399.9 54.5 A 1.42 1.42 0 0 1 400.17 53.673 A 2.025 2.025 0 0 1 400.4 53.4 L 402.95 50.3 A 40.282 40.282 0 0 1 404.447 48.594 Q 406.21 46.684 408.905 44.117 A 202.427 202.427 0 0 1 411.6 41.6 Z M 150.632 65.792 A 5.474 5.474 0 0 0 152.5 66.1 Q 156.5 66.1 159.9 64.15 Q 163.3 62.2 166.2 59.4 Q 169.1 56.6 171.5 54.2 A 54.815 54.815 0 0 0 172.681 52.985 Q 173.229 52.402 173.691 51.869 A 24.904 24.904 0 0 0 174.65 50.7 Q 175.549 49.528 175.745 48.967 A 0.834 0.834 0 0 0 175.8 48.7 Q 175.8 48.287 175.61 48.158 A 0.366 0.366 0 0 0 175.4 48.1 Q 175.2 48.1 174.45 48.6 Q 173.911 48.96 173.243 49.732 A 15.066 15.066 0 0 0 172.7 50.4 Q 171.1 52.4 168.55 54.8 Q 166 57.2 163.2 59.3 A 47.7 47.7 0 0 1 160.63 61.104 A 35.693 35.693 0 0 1 157.85 62.75 Q 156.097 63.678 154.793 63.968 A 5.06 5.06 0 0 1 153.7 64.1 Q 151.2 64.1 151.2 60.9 A 6.017 6.017 0 0 1 151.347 59.644 Q 152.053 56.359 156.152 50.541 A 96.707 96.707 0 0 1 158.7 47.1 L 166.3 37.3 A 1.226 1.226 0 0 0 166.284 37.102 Q 166.191 36.531 165.554 36.022 A 4.459 4.459 0 0 0 165 35.65 A 9.717 9.717 0 0 0 164.892 35.589 Q 164.114 35.153 163.483 34.993 A 2.787 2.787 0 0 0 162.8 34.9 Q 159.932 34.98 155.793 40.775 A 58.447 58.447 0 0 0 153.6 44.1 Q 152.2 46.3 150.75 49.1 A 46.099 46.099 0 0 0 150.224 50.149 A 40.733 40.733 0 0 0 148.35 54.65 Q 147.801 56.24 147.569 57.613 A 11.366 11.366 0 0 0 147.4 59.5 A 17.199 17.199 0 0 0 147.415 60.227 Q 147.494 62.099 147.995 63.317 A 4.017 4.017 0 0 0 148.85 64.65 A 4.797 4.797 0 0 0 150.632 65.792 Z M 233.6 50 L 244.2 35.4 Q 243.606 34.012 241.733 34 A 5.11 5.11 0 0 0 241.7 34 A 11.111 11.111 0 0 0 237.765 34.819 Q 232.494 36.833 225.1 43.8 A 65.39 65.39 0 0 0 221.281 47.697 Q 215.299 54.38 215.299 59.102 A 6.953 6.953 0 0 0 215.4 60.3 A 4.851 4.851 0 0 0 215.699 61.265 Q 216.318 62.672 217.743 62.7 A 2.96 2.96 0 0 0 217.8 62.7 A 7.889 7.889 0 0 0 221.286 61.751 Q 225.843 59.473 232.207 51.733 A 105.469 105.469 0 0 0 233.6 50 Z M 101 50.6 L 111.6 36 A 2.628 2.628 0 0 0 109.715 34.663 A 3.911 3.911 0 0 0 109 34.6 A 10.889 10.889 0 0 0 105.114 35.419 Q 99.907 37.428 92.538 44.365 A 98.789 98.789 0 0 0 92.5 44.4 A 62.257 62.257 0 0 0 88.681 48.233 Q 82.699 54.831 82.699 59.669 A 7.369 7.369 0 0 0 82.8 60.9 A 4.851 4.851 0 0 0 83.099 61.865 Q 83.718 63.272 85.143 63.3 A 2.96 2.96 0 0 0 85.2 63.3 A 7.889 7.889 0 0 0 88.686 62.351 Q 93.243 60.073 99.607 52.333 A 105.469 105.469 0 0 0 101 50.6 Z M 343 50.6 L 353.6 36 A 2.628 2.628 0 0 0 351.715 34.663 A 3.911 3.911 0 0 0 351 34.6 A 10.889 10.889 0 0 0 347.114 35.419 Q 341.907 37.428 334.538 44.365 A 98.789 98.789 0 0 0 334.5 44.4 A 62.257 62.257 0 0 0 330.681 48.233 Q 324.699 54.831 324.699 59.669 A 7.369 7.369 0 0 0 324.8 60.9 A 4.851 4.851 0 0 0 325.099 61.865 Q 325.718 63.272 327.143 63.3 A 2.96 2.96 0 0 0 327.2 63.3 A 7.889 7.889 0 0 0 330.686 62.351 Q 335.243 60.073 341.607 52.333 A 105.469 105.469 0 0 0 343 50.6 Z M 424.8 35.5 L 425.2 32.1 A 44.292 44.292 0 0 0 423.646 33.309 Q 421.807 34.8 419.4 37 Q 415.9 40.2 412.5 43.7 A 87.2 87.2 0 0 0 410.994 45.287 Q 408.956 47.494 408.172 48.734 A 7.338 7.338 0 0 0 408.1 48.85 Q 407.105 50.493 407.001 51.294 A 1.674 1.674 0 0 0 407 51.3 A 11.531 11.531 0 0 0 406.944 52.258 Q 406.92 53.716 407.3 54.938 A 6.764 6.764 0 0 0 408.95 57.7 A 7.721 7.721 0 0 0 414.542 60.099 A 9.53 9.53 0 0 0 414.7 60.1 A 7.921 7.921 0 0 0 416.375 59.932 Q 417.586 59.671 418.5 59 A 2.384 2.384 0 0 0 419.115 58.493 Q 419.896 57.627 420.65 55.65 Q 421.372 53.76 422.07 51.231 A 83.354 83.354 0 0 0 422.7 48.8 A 76.835 76.835 0 0 0 423.893 42.37 A 70.276 70.276 0 0 0 423.95 41.95 Q 424.4 38.6 424.8 35.5 Z M 171 30.6 Q 169.3 30.6 168.05 29.5 A 4.226 4.226 0 0 1 167.32 28.68 A 2.968 2.968 0 0 1 166.8 27 A 2.879 2.879 0 0 1 167.08 25.686 Q 167.689 24.484 169.618 24.254 A 8.345 8.345 0 0 1 170.6 24.2 A 4.459 4.459 0 0 1 172.372 24.581 A 6.175 6.175 0 0 1 173.4 25.15 A 3.89 3.89 0 0 1 174.139 25.788 A 2.515 2.515 0 0 1 174.8 27.5 A 2.223 2.223 0 0 1 174.33 28.854 Q 174.096 29.167 173.746 29.459 A 4.923 4.923 0 0 1 173.5 29.65 A 5.956 5.956 0 0 1 172.599 30.201 Q 172.06 30.463 171.54 30.553 A 3.158 3.158 0 0 1 171 30.6 Z" vector-effect="non-scaling-stroke"/></g></svg>