<svg xmlns="http://www.w3.org/2000/svg" width="2500" height="2500" viewBox="0 0 308.42 60.48"><defs><style>.a{fill:#414142;}.b{fill:none;stroke:#231f20;stroke-width:0.28px;}.c{fill:#231f20;}</style></defs><title>Subaru logo</title><path class="a" d="M448.1,512c0,13.25-20.11,24-44.83,24s-44.83-10.78-44.83-24,20.11-24,44.83-24,44.83,10.78,44.83,24m-44.83-24.6c-25,0-45.4,11-45.4,24.6s20.37,24.6,45.4,24.6,45.4-11,45.4-24.6-20.37-24.6-45.4-24.6" transform="translate(-357.72 -487.26)"/><path class="b" d="M448.1,512c0,13.25-20.11,24-44.83,24s-44.83-10.78-44.83-24,20.11-24,44.83-24S448.1,498.75,448.1,512Zm-44.83-24.6c-25,0-45.4,11-45.4,24.6s20.37,24.6,45.4,24.6,45.4-11,45.4-24.6S428.3,487.4,403.26,487.4Z" transform="translate(-357.72 -487.26)"/><path class="c" d="M485.94,510.56l-16-.69a1.8,1.8,0,0,1-1.81-2.05c0-2.27,1.64-2.39,1.87-2.39h13.48a2.16,2.16,0,0,1,2.33,2.27h7.37v-2.45c0-5.67-6.28-5.47-7.31-5.47H468.74c-1.17,0-7.36.46-7.36,8.5,0,7.74,7.4,7.29,7.4,7.29l15.94.46s1.78-.07,1.81,2.23c0,2.51-1.75,2.51-1.75,2.51H470.85c-2.1,0-2.1-2.68-2.1-2.68h-7.36V520c0,6.35,6.43,6.46,7.41,6.46h17.09c7.24,0,7.44-5.66,7.44-7.9,0-8-7.38-8-7.38-8" transform="translate(-357.72 -487.26)"/><path class="c" d="M559.66,512.22c3.07-1.74,2.76-5.12,2.76-6.59a5.81,5.81,0,0,0-6.17-5.83H531.74v26.58h24.85c5.72,0,6.08-6.91,6.08-6.91.17-6.56-3-7.24-3-7.24m-21.35-6.73h15s2-.09,2,2.27c0,0,.12,2.5-1.93,2.5H538.31Zm15.42,15.31H538.31v-5.53h15.25s2.34-.06,2.28,2.74-2.1,2.8-2.1,2.8" transform="translate(-357.72 -487.26)"/><path class="c" d="M576.61,499.74,562.2,526.36h8l2.54-4.55h15.41l2.54,4.55H599l-14.44-26.61Zm-1.06,16.37,4.89-9.31,4.84,9.31Z" transform="translate(-357.72 -487.26)"/><path class="c" d="M628.86,513.8c3-1.85,2.67-6.13,2.67-6.13,0-2.4-.64-7.89-6.13-7.89H600.68v26.58h7.07v-9.43h14.19c3.17,0,2.94,2.67,2.94,5.31v4.12h6.94v-4.17c0-7.15-3-8.39-3-8.39m-6.93-3.21H607.75v-4.92H622a2.36,2.36,0,0,1,2.73,2.5s.31,2.41-2.76,2.41" transform="translate(-357.72 -487.26)"/><path class="c" d="M520.88,499.78v17.58c0,2.74-2.1,2.66-2.1,2.66h-12.7a2.5,2.5,0,0,1-2.54-2.62V499.78h-7v20.28c0,6.35,7,6.31,7,6.31H521s6.91-.06,6.91-6.32c0-1.52,0-20.25,0-20.25Z" transform="translate(-357.72 -487.26)"/><path class="c" d="M659.12,499.78v17.58c0,2.74-2.09,2.66-2.09,2.66h-12.7a2.5,2.5,0,0,1-2.54-2.62V499.78h-7v20.28c0,6.35,7,6.31,7,6.31H659.2s6.91-.06,6.91-6.32c0-1.52,0-20.25,0-20.25Z" transform="translate(-357.72 -487.26)"/><path class="c" d="M403.26,487.68c-24.92,0-45.12,10.89-45.12,24.32s20.2,24.31,45.12,24.31,45.12-10.89,45.12-24.31-20.2-24.32-45.12-24.32m.1,45.88c-23,0-41.65-9.63-41.65-21.52s18.65-21.52,41.65-21.52S445,500.16,445,512s-18.65,21.52-41.65,21.52" transform="translate(-357.72 -487.26)"/><path class="c" d="M395.83,523.4s-4.34.33-4.32.81,3.58.83,4.18.9a28.55,28.55,0,0,1,3.59.57c.66.24,1.11.43,1.38,1.17s.9,2.92.9,2.92.31,1.21.57,1.21.57-1.28.57-1.28a13.4,13.4,0,0,1,1.12-3.23c.47-.5.55-.69,2.66-1a42.41,42.41,0,0,1,5.8-.71,18.3,18.3,0,0,1,2.87.14,31.94,31.94,0,0,1,3.9.64,2,2,0,0,1,1.33,1.4c.22.55.69,2,.69,2s.12.6.4.6.4-.62.4-.62a12.45,12.45,0,0,1,1.19-2.8c.43-.38.74-.74,2.85-1s3.37-.52,4.11-.57,1.26-.15,1.26-.38-.28-.33-1.33-.48-4.16-.47-5.79-.83-1.73-1.66-2-2.31-.4-1.66-.78-1.66-.47.69-.55.9a12.93,12.93,0,0,1-.74,2,2,2,0,0,1-1.62,1.17,31.77,31.77,0,0,1-5.17.71,27.25,27.25,0,0,1-4.63-.28,15.46,15.46,0,0,1-4-.74c-1.07-.47-1.62-2-1.9-3s-.47-1.4-.64-1.4-.47.71-.66,1.33-.69,2.45-1.43,2.9a10.54,10.54,0,0,1-4.18.92" transform="translate(-357.72 -487.26)"/><path class="c" d="M425.55,515.92a41.14,41.14,0,0,0-5.79.73c-2.11.34-2.18.53-2.66,1A13.69,13.69,0,0,0,416,521s-.31,1.31-.57,1.31-.57-1.23-.57-1.23-.64-2.23-.9-3-.71-.94-1.38-1.19a28.29,28.29,0,0,0-3.59-.58c-.59-.07-4.15-.44-4.18-.92s4.32-.82,4.32-.82a10.43,10.43,0,0,0,4.18-.94c.74-.46,1.23-2.32,1.43-3s.49-1.35.66-1.35.36.45.64,1.43.83,2.57,1.9,3a15.25,15.25,0,0,0,4,.75,20.29,20.29,0,0,0,3.79.31,23,23,0,0,0,3.92-.5c.76-.12,2.18-.36,2.63-1.4s.9-2.56,1.24-2.59.85,1.66.85,1.66.38,1.64,1.66,1.93,3.3.75,4.34.9,1.38.23,1.38.52-1.4.43-1.4.43-3.78.43-4.53.9-1.21.81-1.78,3.38c-.21.66-.26,1-.47,1s-.57-1.07-1-2.54-.78-1.87-2.9-2.18a26.65,26.65,0,0,0-4.14-.4" transform="translate(-357.72 -487.26)"/><path class="c" d="M371.67,505.55l-5.2.71s-.93,0-.93.39.79.36,1.07.39l5.84.79s8.87,1.21,9.72,1.36,3.24.46,4.28,1.39,1.92,2.92,2.56,5.88,1.32,5.48,1.32,5.48.11.89.46.89.46-.93.46-.93,1.74-6.95,2.17-8.16a5.52,5.52,0,0,1,4.92-4.38c3.88-.6,11.11-1.42,11.11-1.42a89.6,89.6,0,0,1,9.48-.71c2.42.14,5.13.5,5.81.61a2.46,2.46,0,0,1,2.24,1.41,31.65,31.65,0,0,1,1,3.42s.17.69.43.69.43-.64.43-.64.78-2.71,1.07-3.4.86-1.28,3-1.54,4.35-.74,4.35-.74,1.07,0,1.07-.43-1.14-.43-1.14-.43l-4.84-.78s-1.95-.14-2.45-1.43-1-2.68-1-2.68-.09-.57-.38-.57-.43.69-.43.69a13.49,13.49,0,0,1-1,2.61c-.45.64-1,1.28-3.39,1.52s-3.66.5-4.61.53a35.47,35.47,0,0,1-4.49-.17l-11.71-1.43a43.93,43.93,0,0,1-5.34-.88c-1.28-.43-3.16-.5-4.61-5s-1.54-4.86-1.54-4.86-.12-.83-.52-.83-.52.93-.52.93-1.62,5.25-2.38,6.81-1.3,3-7.64,3.75c-5.63.74-8.58,1.2-8.58,1.2" transform="translate(-357.72 -487.26)"/></svg>